<?xml version="1.0" standalone="no"?><!DOCTYPE svg PUBLIC "-//W3C//DTD SVG 1.1//EN" "http://www.w3.org/Graphics/SVG/1.1/DTD/svg11.dtd"><svg class="icon" width="200px" height="200.00px" viewBox="0 0 1024 1024" version="1.1" xmlns="http://www.w3.org/2000/svg"><path d="M926.5 62.9H83.2c-13.2 0-24 10.8-24 24v843.3c0 13.2 10.8 24 24 24h843.2c13.3 0 24-10.8 24.1-24V86.9c0-13.2-10.8-24-24-24z m-20 847.3H103.2V106.9h803.3v803.3z"  /><path d="M451.9 674.5L737 389.4c8.6-8.6 8.6-22.5 0-31.1-8.6-8.6-22.5-8.6-31.1 0l-254 254L303.6 464c-8.6-8.6-22.5-8.6-31.1 0-8.6 8.6-8.6 22.5 0 31.1l179.4 179.4z"  /></svg>