<?xml version="1.0" standalone="no"?><!DOCTYPE svg PUBLIC "-//W3C//DTD SVG 1.1//EN" "http://www.w3.org/Graphics/SVG/1.1/DTD/svg11.dtd"><svg class="icon" width="200px" height="200.00px" viewBox="0 0 1024 1024" version="1.1" xmlns="http://www.w3.org/2000/svg"><path d="M512 512m-512 0a512 512 0 1 0 1024 0 512 512 0 1 0-1024 0Z" fill="#FFA726" /><path d="M602.112 573.44c12.3904 8.192 24.2688 16.4864 36.6592 24.1664 33.5872 19.3536 36.864 37.1712 46.6944 63.1808a295.424 295.424 0 0 0 17.6128 37.5808 20.48 20.48 0 0 1-19.3536 32.256 21.1968 21.1968 0 0 1-18.944-13.4144c-4.096-8.704-8.0896-17.5104-12.1856-26.2144-5.0176-10.24-10.24-20.48-15.4624-31.3344a51.2 51.2 0 0 0-16.384-19.3536 163.84 163.84 0 0 0-61.44-35.9424 6.9632 6.9632 0 0 0-9.5232 2.3552A113.2544 113.2544 0 0 1 409.6 631.3984a22.2208 22.2208 0 0 1-13.1072-23.552 24.6784 24.6784 0 0 1 20.48-20.48c7.5776-1.3312 12.1856 3.8912 18.5344 6.9632a67.3792 67.3792 0 0 0 50.3808 5.12c24.576-8.704 27.8528-23.1424 37.888-40.96 15.9744-28.2624 30.72-57.344 45.9776-86.1184l5.8368-10.8544a59.0848 59.0848 0 0 0-60.5184 11.776 169.6768 169.6768 0 0 0-14.9504 16.2816 25.7024 25.7024 0 0 1-39.1168 0 16.7936 16.7936 0 0 1-1.3312-20.48 118.0672 118.0672 0 0 1 133.12-47.0016 317.44 317.44 0 0 1 39.2192 16.6912 225.28 225.28 0 0 0 27.7504 12.5952c33.3824 9.5232 47.0016 1.3312 65.024-17.7152 3.4816-3.6864 6.4512-7.7824 9.728-11.5712a24.9856 24.9856 0 0 1 38.0928 0 16.896 16.896 0 0 1 1.6384 20.48c-26.8288 40.96-70.8608 65.7408-121.9584 52.8384-10.9568-2.7648-13.4144 4.5056-30.72 38.8096-6.144 12.3904-8.704 18.0224-14.4384 29.9008-1.1264 3.7888-3.6864 6.9632-5.0176 9.3184z" fill="#FFFFFF" /><path d="M615.2192 383.1808a44.7488 44.7488 0 1 1 44.8512 44.7488 44.9536 44.9536 0 0 1-44.8512-44.7488z" fill="#FFFFFF" /><path d="M363.6224 353.3824m7.8848 0l167.8336 0q7.8848 0 7.8848 7.8848l0 1.536q0 7.8848-7.8848 7.8848l-167.8336 0q-7.8848 0-7.8848-7.8848l0-1.536q0-7.8848 7.8848-7.8848Z" fill="#FFFFFF" /><path d="M232.6528 441.0368m7.8848 0l167.8336 0q7.8848 0 7.8848 7.8848l0 1.536q0 7.8848-7.8848 7.8848l-167.8336 0q-7.8848 0-7.8848-7.8848l0-1.536q0-7.8848 7.8848-7.8848Z" fill="#FFFFFF" /><path d="M306.4832 534.1184m7.8848 0l167.8336 0q7.8848 0 7.8848 7.8848l0 1.536q0 7.8848-7.8848 7.8848l-167.8336 0q-7.8848 0-7.8848-7.8848l0-1.536q0-7.8848 7.8848-7.8848Z" fill="#FFFFFF" /><path d="M395.9808 684.2368m7.8848 0l167.8336 0q7.8848 0 7.8848 7.8848l0 1.536q0 7.8848-7.8848 7.8848l-167.8336 0q-7.8848 0-7.8848-7.8848l0-1.536q0-7.8848 7.8848-7.8848Z" fill="#FFFFFF" /></svg>