<?xml version="1.0" standalone="no"?><!DOCTYPE svg PUBLIC "-//W3C//DTD SVG 1.1//EN" "http://www.w3.org/Graphics/SVG/1.1/DTD/svg11.dtd"><svg class="icon" width="200px" height="200.00px" viewBox="0 0 1024 1024" version="1.1" xmlns="http://www.w3.org/2000/svg"><path d="M907.3 227.2H118.1c-11.4 0-20.7-9.3-20.7-20.7s9.3-20.7 20.7-20.7h789.3c11.4 0 20.7 9.3 20.7 20.7s-9.4 20.7-20.8 20.7zM907.3 533.9H118.1c-11.4 0-20.7-9.3-20.7-20.7s9.3-20.7 20.7-20.7h789.3c11.4 0 20.7 9.3 20.7 20.7s-9.4 20.7-20.8 20.7zM907.3 840.6H118.1c-11.4 0-20.7-9.3-20.7-20.7s9.3-20.7 20.7-20.7h789.3c11.4 0 20.7 9.3 20.7 20.7s-9.4 20.7-20.8 20.7z" fill="#333333" /></svg>