<?xml version="1.0" standalone="no"?><!DOCTYPE svg PUBLIC "-//W3C//DTD SVG 1.1//EN" "http://www.w3.org/Graphics/SVG/1.1/DTD/svg11.dtd"><svg class="icon" width="200px" height="200.00px" viewBox="0 0 1024 1024" version="1.1" xmlns="http://www.w3.org/2000/svg"><path d="M302.545455 930.909091v-213.573818l221.090909-140.683637 221.090909 140.683637V930.909091H302.545455z m0-577.698909V116.363636h442.181818v236.846546l-221.090909 140.683636-221.090909-140.683636zM896 930.909091H814.545455V679.028364L588.660364 535.272727 814.545455 391.517091V116.363636h81.454545a34.909091 34.909091 0 1 0 0-69.818181h-744.727273a34.909091 34.909091 0 1 0 0 69.818181H232.727273v275.153455L458.612364 535.272727 232.727273 679.028364V930.909091H151.272727a34.909091 34.909091 0 1 0 0 69.818182h744.727273a34.909091 34.909091 0 1 0 0-69.818182z" fill="#d81e06" /></svg>