<?xml version="1.0" standalone="no"?><!DOCTYPE svg PUBLIC "-//W3C//DTD SVG 1.1//EN" "http://www.w3.org/Graphics/SVG/1.1/DTD/svg11.dtd"><svg class="icon" width="200px" height="200.00px" viewBox="0 0 1024 1024" version="1.1" xmlns="http://www.w3.org/2000/svg"><path d="M512 149.3c200 0 362.7 162.7 362.7 362.7S712 874.7 512 874.7 149.3 712 149.3 512 312 149.3 512 149.3m0-64c-235.6 0-426.7 191-426.7 426.7s191 426.7 426.7 426.7c235.6 0 426.7-191 426.7-426.7S747.6 85.3 512 85.3z" fill="#040000" /><path d="M785.3 544H480V298.7c0-17.7 14.3-32 32-32s32 14.3 32 32V480h241.3c17.7 0 32 14.3 32 32s-14.3 32-32 32z" fill="#F5C71D" /></svg>