<?xml version="1.0" standalone="no"?><!DOCTYPE svg PUBLIC "-//W3C//DTD SVG 1.1//EN" "http://www.w3.org/Graphics/SVG/1.1/DTD/svg11.dtd"><svg class="icon" width="200px" height="200.00px" viewBox="0 0 1024 1024" version="1.1" xmlns="http://www.w3.org/2000/svg"><path d="M232 144H176a40 40 0 0 0-40 40V304h800v-120A40 40 0 0 0 896 144h-56" fill="#FF5252" /><path d="M136 456h800V576h-800z" fill="#FFD740" /><path d="M288 224a24 24 0 0 1-24-24v-112a24 24 0 0 1 48 0v112A24 24 0 0 1 288 224z" fill="#FFFFFF" /><path d="M288 232c-17.648 0-32-14.352-32-32v-112c0-17.648 14.352-32 32-32s32 14.352 32 32v112c0 17.648-14.352 32-32 32z m0-160c-8.816 0-16 7.184-16 16v112c0 8.816 7.184 16 16 16s16-7.184 16-16v-112c0-8.816-7.184-16-16-16z" fill="#263238" /><path d="M536 224a24 24 0 0 1-24-24v-112a24 24 0 0 1 48 0v112a24 24 0 0 1-24 24z" fill="#FFFFFF" /><path d="M536 232c-17.648 0-32-14.352-32-32v-112c0-17.648 14.352-32 32-32s32 14.352 32 32v112c0 17.648-14.352 32-32 32z m0-160c-8.816 0-16 7.184-16 16v112c0 8.816 7.184 16 16 16s16-7.184 16-16v-112c0-8.816-7.184-16-16-16z" fill="#263238" /><path d="M784 224a24 24 0 0 1-24-24v-112a24 24 0 0 1 48 0v112A24 24 0 0 1 784 224z" fill="#FFFFFF" /><path d="M784 232c-17.648 0-32-14.352-32-32v-112c0-17.648 14.352-32 32-32s32 14.352 32 32v112c0 17.648-14.352 32-32 32z m0-160c-8.816 0-16 7.184-16 16v112c0 8.816 7.184 16 16 16s16-7.184 16-16v-112c0-8.816-7.184-16-16-16zM480 152h-136a8 8 0 0 1 0-16H480a8 8 0 0 1 0 16zM728 152H592a8 8 0 0 1 0-16h136a8 8 0 0 1 0 16z" fill="#263238" /><path d="M936 312h-800A8 8 0 0 1 128 304v-120c0-26.464 21.536-48 48-48h56a8 8 0 0 1 0 16H176c-17.648 0-32 14.352-32 32v112h784v-112c0-17.648-14.352-32-32-32h-56a8 8 0 0 1 0-16H896c26.464 0 48 21.536 48 48V304a8 8 0 0 1-8 8z" fill="#263238" /><path d="M816 816m-192 0a192 192 0 1 0 384 0 192 192 0 1 0-384 0Z" fill="#40C4FF" /><path d="M816 1016c-110.288 0-200-89.712-200-200S705.712 616 816 616 1016 705.712 1016 816 926.288 1016 816 1016z m0-384c-101.456 0-184 82.544-184 184S714.544 1000 816 1000 1000 917.456 1000 816 917.456 632 816 632zM594.288 856H176c-26.464 0-48-21.536-48-48V336a8 8 0 0 1 16 0v472c0 17.648 14.352 32 32 32h418.288a8 8 0 0 1 0 16z" fill="#263238" /><path d="M779.552 902.224c-6.144 0-12.288-2.336-16.976-7.024l-67.888-67.888a24 24 0 1 1 33.936-33.936l50.912 50.912 107.472-107.472a24 24 0 1 1 33.936 33.936l-124.448 124.448a23.792 23.792 0 0 1-16.944 7.024z" fill="#FFFFFF" /><path d="M779.552 910.224a31.776 31.776 0 0 1-22.624-9.376l-67.888-67.888a31.728 31.728 0 0 1-9.376-22.624c0-8.544 3.328-16.576 9.376-22.624 12.096-12.096 33.152-12.096 45.248 0l45.264 45.264 101.824-101.824a32.016 32.016 0 0 1 54.624 22.624c0 8.544-3.328 16.592-9.376 22.624l-124.448 124.448c-6.048 6.048-14.08 9.376-22.624 9.376z m-67.888-115.872a16 16 0 0 0-11.312 27.296l67.888 67.888a16.368 16.368 0 0 0 22.624 0l124.448-124.448c3.024-3.024 4.688-7.04 4.688-11.312s-1.664-8.288-4.688-11.312a16.032 16.032 0 0 0-22.624 0l-107.472 107.488a8 8 0 0 1-11.312 0l-50.928-50.912a15.952 15.952 0 0 0-11.312-4.688zM336 856a8 8 0 0 1-8-8V336a8 8 0 0 1 16 0v512a8 8 0 0 1-8 8zM536 856a8 8 0 0 1-8-8V336a8 8 0 0 1 16 0v512a8 8 0 0 1-8 8zM736 614.72a8 8 0 0 1-8-8V336a8 8 0 0 1 16 0v270.72a8 8 0 0 1-8 8zM936 634.848a8 8 0 0 1-8-8V336a8 8 0 0 1 16 0v290.848a8 8 0 0 1-8 8z" fill="#263238" /><path d="M936 464h-800a8 8 0 0 1 0-16h800a8 8 0 0 1 0 16zM936 584h-800a8 8 0 0 1 0-16h800a8 8 0 0 1 0 16zM626.848 704H136a8 8 0 0 1 0-16h490.848a8 8 0 0 1 0 16zM80 168H16a8 8 0 0 1 0-16h64a8 8 0 0 1 0 16z" fill="#263238" /><path d="M184 56h-64a8 8 0 0 1 0-16h64a8 8 0 0 1 0 16z" fill="#263238" /><path d="M152 88A8 8 0 0 1 144 80V16a8 8 0 0 1 16 0v64a8 8 0 0 1-8 8z" fill="#263238" /><path d="M48 200a8 8 0 0 1-8-8V128a8 8 0 0 1 16 0v64a8 8 0 0 1-8 8z" fill="#263238" /><path d="M520 936h-32a8 8 0 0 1 0-16h32a8 8 0 0 1 0 16z" fill="#263238" /><path d="M456 936h-240a8 8 0 0 1 0-16h240a8 8 0 0 1 0 16z" fill="#263238" /></svg>