<?xml version="1.0" standalone="no"?><!DOCTYPE svg PUBLIC "-//W3C//DTD SVG 1.1//EN" "http://www.w3.org/Graphics/SVG/1.1/DTD/svg11.dtd"><svg class="icon" width="200px" height="200.00px" viewBox="0 0 1024 1024" version="1.1" xmlns="http://www.w3.org/2000/svg"><path d="M694.857143 402.285714l73.142857 0 0 365.714286-73.142857 0 0-365.714286Z"  /><path d="M548.571429 402.285714 256 402.285714 256 475.428571 475.428571 475.428571 475.428571 548.571429 256 548.571429 256 621.714286 475.428571 621.714286 475.428571 694.857143 256 694.857143 256 768 548.571429 768Z"  /><path d="M950.857143 73.142857 768 73.142857 768 36.571429l-109.714286 0 0 36.571429L365.714286 73.142857 365.714286 36.571429l-109.714286 0 0 36.571429L73.142857 73.142857c-20.214857 0-36.571429 16.374857-36.571429 36.571429l0 804.571429c0 20.214857 16.356571 36.571429 36.571429 36.571429l877.714286 0c20.214857 0 36.571429-16.356571 36.571429-36.571429L987.428571 109.714286C987.428571 89.517714 971.072 73.142857 950.857143 73.142857zM914.285714 877.714286 109.714286 877.714286 109.714286 292.571429l804.571429 0L914.285714 877.714286zM914.285714 256 109.714286 256 109.714286 146.285714l146.285714 0 0 36.571429 109.714286 0L365.714286 146.285714l292.571429 0 0 36.571429 109.714286 0L768 146.285714l146.285714 0L914.285714 256z"  /></svg>