<?xml version="1.0" standalone="no"?><!DOCTYPE svg PUBLIC "-//W3C//DTD SVG 1.1//EN" "http://www.w3.org/Graphics/SVG/1.1/DTD/svg11.dtd"><svg class="icon" width="200px" height="200.00px" viewBox="0 0 1024 1024" version="1.1" xmlns="http://www.w3.org/2000/svg"><path d="M694.832145 731.328581H767.925007c10.698955 0 19.398106 3.399668 26.297432 10.298994 6.899326 6.899326 10.298994 15.598477 10.298994 26.297432s-3.399668 19.398106-10.298994 26.297432c-6.899326 6.899326-15.598477 10.298994-26.297432 10.298994h-73.092862c-10.698955 0-19.398106-3.399668-26.297432-10.298994-6.899326-6.899326-10.298994-15.598477-10.298994-26.297432s3.399668-19.398106 10.298994-26.297432c6.799336-6.799336 15.598477-10.298994 26.297432-10.298994z m0-219.378576H767.925007c10.698955 0 19.398106 3.399668 26.297432 10.298994 6.899326 6.899326 10.298994 15.598477 10.298994 26.297432 0 10.698955-3.399668 19.398106-10.298994 26.297432-6.899326 6.899326-15.598477 10.298994-26.297432 10.298994h-73.092862c-10.698955 0-19.398106-3.399668-26.297432-10.298994-6.899326-6.899326-10.298994-15.598477-10.298994-26.297432 0-10.698955 3.399668-19.398106 10.298994-26.297432 6.799336-6.899326 15.598477-10.298994 26.297432-10.298994zM475.353579 731.328581h73.092862c10.698955 0 19.398106 3.399668 26.297432 10.298994 6.899326 6.899326 10.298994 15.598477 10.298994 26.297432s-3.399668 19.398106-10.298994 26.297432c-6.899326 6.899326-15.598477 10.298994-26.297432 10.298994h-73.092862c-10.698955 0-19.398106-3.399668-26.297432-10.298994-6.899326-6.899326-10.298994-15.598477-10.298994-26.297432s3.399668-19.398106 10.298994-26.297432c6.899326-6.799336 15.598477-10.298994 26.297432-10.298994z m0-219.378576h73.092862c10.698955 0 19.398106 3.399668 26.297432 10.298994 6.899326 6.899326 10.298994 15.598477 10.298994 26.297432 0 10.698955-3.399668 19.398106-10.298994 26.297432s-15.598477 10.298994-26.297432 10.298994h-73.092862c-10.698955 0-19.398106-3.399668-26.297432-10.298994s-10.298994-15.598477-10.298994-26.297432c0-10.698955 3.399668-19.398106 10.298994-26.297432 6.899326-6.899326 15.598477-10.298994 26.297432-10.298994zM255.975002 731.328581h73.092862c10.698955 0 19.398106 3.399668 26.297432 10.298994 6.899326 6.899326 10.298994 15.598477 10.298995 26.297432s-3.399668 19.398106-10.298995 26.297432c-6.899326 6.899326-15.598477 10.298994-26.297432 10.298994H255.975002c-10.698955 0-19.398106-3.399668-26.297431-10.298994-6.899326-6.899326-10.298994-15.598477-10.298995-26.297432s3.399668-19.398106 10.298995-26.297432c6.899326-6.799336 15.598477-10.298994 26.297431-10.298994z m0-219.378576h73.092862c10.698955 0 19.398106 3.399668 26.297432 10.298994 6.899326 6.899326 10.298994 15.598477 10.298995 26.297432 0 10.698955-3.399668 19.398106-10.298995 26.297432-6.899326 6.899326-15.598477 10.298994-26.297432 10.298994H255.975002c-10.698955 0-19.398106-3.399668-26.297431-10.298994-6.899326-6.899326-10.298994-15.598477-10.298995-26.297432 0-10.698955 3.399668-19.398106 10.298995-26.297432 6.899326-6.899326 15.598477-10.298994 26.297431-10.298994z m36.596427-438.857143h438.857142V36.596426c0-10.698955 3.399668-19.398106 10.298995-26.297432C748.526902 3.399668 757.226052 0 767.925007 0s19.398106 3.399668 26.297432 10.298994c6.899326 6.899326 10.298994 15.598477 10.298994 26.297432v36.596426h182.882141c10.698955 0 19.398106 3.399668 26.297432 10.298994 6.899326 6.899326 10.298994 15.598477 10.298994 26.297432v877.614296c0 10.698955-3.399668 19.398106-10.298994 26.297432-6.899326 6.899326-15.598477 10.298994-26.297432 10.298994H36.596426c-10.698955 0-19.398106-3.399668-26.297432-10.298994C3.399668 1006.80168 0 998.002539 0 987.303584V109.689288C0 98.990333 3.399668 90.291183 10.298994 83.391856c6.899326-6.899326 15.598477-10.298994 26.297432-10.298994h182.882141V36.596426c0-10.698955 3.399668-19.398106 10.298994-26.297432C236.576897 3.399668 245.276047 0 255.975002 0s19.398106 3.399668 26.297432 10.298994 10.298994 15.598477 10.298995 26.297432v36.496436zM73.092862 365.664291v585.042867h877.614296V146.285714H804.521433v36.596426c0 10.698955-3.399668 19.398106-10.298994 26.297432-6.899326 6.899326-15.598477 10.298994-26.297432 10.298995s-19.398106-3.399668-26.297432-10.298995c-6.899326-6.899326-10.298994-15.598477-10.298994-26.297432v-36.596426H292.571429v36.596426c0 10.698955-3.399668 19.398106-10.298995 26.297432-6.899326 6.899326-15.598477 10.298994-26.297432 10.298995-10.698955 0-19.398106-3.399668-26.297431-10.298995-6.899326-6.899326-10.298994-15.598477-10.298995-26.297432v-36.596426H73.092862v146.285715h877.614296v73.092862H73.092862z" /></svg>