<?xml version="1.0" standalone="no"?><!DOCTYPE svg PUBLIC "-//W3C//DTD SVG 1.1//EN" "http://www.w3.org/Graphics/SVG/1.1/DTD/svg11.dtd"><svg class="icon" width="200px" height="200.00px" viewBox="0 0 1024 1024" version="1.1" xmlns="http://www.w3.org/2000/svg"><path d="M520.533333 597.333333l128-128 29.866667 29.866667-153.6 153.6-110.933333-110.933333 29.866666-29.866667 76.8 85.333333zM640 256v42.666667h-213.333333V234.666667c0-8.533333 0-12.8 4.266666-21.333334H298.666667v640h469.333333V213.333333h-132.266667c4.266667 8.533333 4.266667 12.8 4.266667 21.333334V256z m-42.666667 0v-21.333333c0-34.133333-29.866667-64-64-64S469.333333 200.533333 469.333333 234.666667V256h128z m-149.333333-85.333333c21.333333-25.6 51.2-42.666667 85.333333-42.666667s64 17.066667 85.333334 42.666667H810.666667v725.333333H256V170.666667h192z" fill="#444444" /></svg>