<?xml version="1.0" standalone="no"?><!DOCTYPE svg PUBLIC "-//W3C//DTD SVG 1.1//EN" "http://www.w3.org/Graphics/SVG/1.1/DTD/svg11.dtd"><svg class="icon" width="200px" height="200.00px" viewBox="0 0 1024 1024" version="1.1" xmlns="http://www.w3.org/2000/svg"><path d="M150.588235 0h722.82353c83.169882 0 150.588235 67.418353 150.588235 150.588235v722.82353c0 83.169882-67.418353 150.588235-150.588235 150.588235H150.588235C67.418353 1024 0 956.581647 0 873.411765V150.588235C0 67.418353 67.418353 0 150.588235 0z m453.466353 328.131765h187.843765c14.049882 0 21.263059-6.851765 21.278118-20.133647v-15.781647c0-13.417412-7.228235-20.148706-21.624471-20.148706h-374.964706c-13.522824 0-20.901647 6.987294-20.901647 19.772235 0 5.150118 0.331294 10.315294-0.060235 15.420235-1.008941 12.709647 8.026353 21.112471 22.437647 21.022118 61.982118-0.361412 123.994353-0.150588 185.97647-0.150588z m0.602353 160.783059h-187.482353c-14.546824 0-21.624471 6.716235-21.62447 20.48v15.073882c0 13.793882 7.077647 20.495059 21.639529 20.495059h225.882353c49.197176 0 98.394353-0.240941 147.606588 0.150588 13.989647 0.120471 23.461647-7.936 22.422588-20.992-0.391529-4.758588-0.060235-9.577412-0.060235-14.366118-0.015059-14.260706-6.942118-20.841412-22.016-20.841411H604.672zM599.988706 761.976471h184.666353c13.251765 0 20.48-7.017412 20.510117-19.84753v-16.158117c-0.015059-13.462588-7.077647-20.208941-21.217882-20.208942H415.683765c-12.754824 0-20.118588 7.137882-20.133647 19.486118v16.504471c0 13.477647 7.077647 20.224 21.217882 20.224h183.205647zM347.331765 324.683294c0-16.429176 0.060235-32.873412 0-49.332706-0.060235-11.489882-7.890824-19.305412-19.425883-19.32047-32.512-0.045176-65.008941-0.045176-97.520941 0-11.745882 0-19.516235 7.830588-19.531294 19.591529-0.045176 32.391529-0.045176 64.783059 0 97.174588 0 11.971765 7.770353 19.696941 19.802353 19.712 32.256 0.030118 64.512 0.030118 96.783059 0 12.197647-0.015059 19.862588-7.710118 19.877647-19.983059 0.045176-15.932235 0.015059-31.879529 0.015059-47.841882z m0.015059 385.460706c0-16.067765 0.030118-32.150588 0-48.203294-0.030118-12.8-7.529412-20.404706-20.224-20.419765h-96.075295c-12.694588 0.015059-20.224 7.619765-20.224 20.419765v95.683765c0 12.8 7.529412 20.389647 20.224 20.404705h96.075295c12.679529 0 20.208941-7.604706 20.224-20.404705v-47.480471z m16.067764-262.731294c-0.692706-4.758588-4.141176-7.770353-8.086588-6.324706a21.714824 21.714824 0 0 0-7.228235 4.608 22819.162353 22819.162353 0 0 0-83.907765 79.525647c-1.957647 1.852235-3.207529 2.108235-5.391059 0.301177-10.616471-8.884706-21.338353-17.618824-32.075294-26.352942a25.253647 25.253647 0 0 0-4.126118-2.921411c-3.418353-1.776941-6.595765-0.948706-9.33647 1.536-2.680471 2.424471-2.981647 5.571765-1.716706 8.82447 0.752941 1.807059 1.701647 3.523765 2.876235 5.089883 12.182588 16.986353 24.395294 33.942588 36.638118 50.883764 1.129412 1.596235 2.424471 3.056941 3.870118 4.352 3.087059 2.680471 6.475294 3.056941 9.637647 0.873412 1.852235-1.28 3.463529-3.026824 4.939294-4.773647 6.671059-7.936 13.251765-15.947294 19.877647-23.928471 23.371294-28.16 46.742588-56.32 70.038588-84.555294 1.686588-2.078118 2.680471-4.758588 3.990588-7.137882z" fill="#1AA5DD" /></svg>